<?xml version="1.0" standalone="no"?>
<!DOCTYPE svg PUBLIC "-//W3C//DTD SVG 20010904//EN"
 "http://www.w3.org/TR/2001/REC-SVG-20010904/DTD/svg10.dtd">
<svg version="1.0" xmlns="http://www.w3.org/2000/svg"
 width="256.000000pt" height="256.000000pt" viewBox="0 0 256.000000 256.000000"
 preserveAspectRatio="xMidYMid meet">

<g transform="translate(0.000000,256.000000) scale(0.100000,-0.100000)"
fill="#000000" stroke="none">
<path d="M760 2546 c-60 -21 -121 -69 -225 -178 -248 -258 -398 -531 -467
-852 -29 -135 -31 -398 -5 -528 76 -375 292 -666 625 -841 196 -102 359 -142
587 -142 228 0 391 40 587 142 333 175 549 466 625 841 26 130 24 393 -5 528
-72 337 -245 640 -513 900 -135 130 -222 167 -304 128 -60 -28 -75 -72 -75
-227 l0 -128 -62 8 c-81 10 -425 10 -505 0 l-63 -8 0 128 c0 103 -4 136 -19
169 -30 65 -101 89 -181 60z m97 -98 c4 -7 10 -88 13 -180 3 -102 9 -171 16
-178 8 -8 36 -6 105 6 130 24 427 24 563 1 71 -13 102 -15 110 -7 7 7 13 79
16 178 3 92 9 173 13 180 13 21 61 13 108 -16 63 -41 253 -242 326 -345 78
-110 171 -294 211 -414 57 -169 67 -239 66 -448 -1 -170 -3 -200 -26 -286 -57
-212 -146 -366 -295 -510 -229 -221 -495 -329 -808 -329 -313 0 -579 108 -808
329 -149 143 -237 297 -295 510 -23 87 -26 115 -26 286 -1 146 3 209 17 272
48 222 142 429 279 615 74 101 247 280 307 319 47 30 94 38 108 17z"/>
<path d="M1105 1583 c-358 -17 -587 -79 -706 -190 -63 -59 -83 -112 -77 -198
18 -216 244 -316 776 -341 141 -7 142 -7 142 -31 0 -103 -134 -198 -245 -173
-51 12 -114 57 -136 99 -24 46 -33 53 -52 45 -37 -14 -12 -79 53 -138 58 -52
103 -69 180 -69 80 0 152 33 202 92 l33 39 33 -39 c51 -59 122 -92 202 -92 77
0 122 17 180 69 65 59 90 124 53 138 -19 8 -28 1 -52 -45 -22 -42 -85 -87
-136 -99 -111 -25 -245 70 -245 173 0 23 1 23 183 35 525 33 761 146 761 362
0 134 -89 225 -284 289 -177 59 -543 90 -865 74z m461 -103 c224 -18 360 -47
465 -100 169 -86 169 -233 -1 -320 -57 -29 -199 -67 -320 -85 -146 -22 -538
-31 -725 -16 -400 32 -565 109 -565 264 0 66 33 106 134 158 92 48 294 90 486
102 131 8 407 6 526 -3z"/>
<path d="M740 1389 c-117 -48 -127 -210 -17 -263 102 -48 209 19 209 131 0 95
-106 168 -192 132z m-2 -83 c6 -29 -15 -43 -35 -24 -14 14 -14 20 -3 33 16 19
34 15 38 -9z m73 -36 c22 -12 26 -59 7 -78 -7 -7 -21 -12 -33 -12 -43 0 -61
53 -29 84 18 19 28 20 55 6z"/>
<path d="M1730 1382 c-49 -27 -72 -63 -77 -119 -3 -36 1 -56 16 -81 97 -154
327 -36 257 132 -30 71 -128 105 -196 68z m158 -76 c5 -24 -10 -38 -31 -30
-20 7 -23 40 -4 47 19 8 32 2 35 -17z m-58 -46 c25 -25 25 -42 0 -65 -45 -40
-105 20 -65 65 23 25 40 25 65 0z"/>
</g>
</svg>
